 <svg version="1.0" xmlns="http://www.w3.org/2000/svg" width="700.000000pt" height="700.000000pt" viewBox="0 0 700.000000 700.000000" preserveAspectRatio="xMidYMid meet">
<metadata>
Created by potrace 1.12, written by Peter Selinger 2001-2015
</metadata>
<g transform="translate(0.000000,700.000000) scale(0.100000,-0.100000)" fill="#000000" stroke="none">
<path d="M820 5525 c-129 -33 -211 -48 -312 -57 l-138 -12 0 -143 0 -143 103
0 c138 -1 195 -20 222 -75 20 -39 20 -65 25 -1835 l5 -1795 195 0 195 0 7 72
c4 40 14 89 23 110 20 48 65 113 77 113 6 0 42 -30 82 -67 231 -216 514 -306
856 -273 209 20 408 90 554 194 191 137 352 368 435 623 75 229 86 311 86 628
-1 266 -2 286 -28 407 -60 283 -159 473 -329 633 -174 165 -376 250 -649 275
-224 21 -440 -13 -614 -96 -91 -43 -219 -137 -269 -199 -21 -25 -42 -45 -47
-45 -5 0 -9 296 -9 758 0 647 -2 767 -15 817 -29 112 -75 147 -199 152 -69 2
-106 -4 -256 -42z m1265 -1670 c107 -23 189 -68 270 -149 159 -161 241 -391
267 -758 19 -271 -6 -514 -76 -720 -107 -315 -320 -496 -586 -497 -338 -2
-571 253 -655 716 -9 49 -19 158 -22 243 -14 394 66 723 231 947 132 180 352
264 571 218z"></path>
<path d="M5315 4166 c-100 -19 -298 -87 -396 -137 -90 -45 -238 -138 -259
-164 -26 -32 -37 -16 -44 64 -7 86 -27 154 -54 184 -48 55 -178 73 -292 42
-216 -59 -305 -77 -442 -87 l-148 -12 0 -142 0 -142 133 -4 c110 -3 138 -7
167 -24 67 -39 65 -7 68 -934 3 -605 0 -850 -8 -888 -14 -62 -57 -118 -108
-139 -19 -8 -73 -16 -121 -19 -146 -9 -132 8 -129 -157 l3 -142 668 -3 667 -2
0 145 c0 167 13 150 -125 159 -166 11 -242 55 -264 154 -8 37 -11 288 -11 826
l0 774 55 50 c111 102 250 167 428 201 317 61 516 -17 623 -244 63 -134 66
-167 71 -900 5 -710 4 -739 -45 -796 -35 -42 -77 -58 -169 -65 -43 -3 -91 -7
-108 -10 l-30 -4 2 -142 1 -143 599 0 598 0 0 145 0 145 -55 6 c-134 14 -179
38 -202 107 -8 27 -14 229 -18 737 -6 588 -10 716 -24 802 -23 143 -58 251
-118 373 -44 90 -64 117 -137 190 -96 95 -177 144 -301 181 -95 27 -364 36
-475 15z"></path>
</g>
</svg>